<?xml version="1.0" encoding="utf-8"?>
<!-- Generator: Adobe Illustrator 27.0.0, SVG Export Plug-In . SVG Version: 6.00 Build 0)  -->
<svg version="1.1" id="Layer_1" xmlns="http://www.w3.org/2000/svg" xmlns:xlink="http://www.w3.org/1999/xlink" x="0px" y="0px"
	 viewBox="0 0 666.7 133" style="enable-background:new 0 0 666.7 133;" xml:space="preserve">
<style type="text/css">
	.st0{fill:#CE0E2D;}
</style>
<g>
	<g>
		<path class="st0" d="M653.5,107.4c7,0,13.2,5,13.2,12.8c0,7.8-6.2,12.9-13.2,12.9c-7,0-13.2-5-13.2-12.8
			C640.4,112.4,646.5,107.4,653.5,107.4z M653.5,130.3c5.3,0,9.7-4.2,9.7-10.1c0-5.8-4.3-10-9.7-10c-5.4,0-9.7,4.2-9.7,10
			C643.8,126,648.1,130.3,653.5,130.3z M648.4,113h5.4c3.6,0,5.6,1.1,5.6,4.2c0,2.6-1.6,3.7-3.8,3.8l3.8,6.3h-3l-3.5-6.1h-1.8v6.1
			h-2.8L648.4,113L648.4,113z M651.2,119h2.5c1.6,0,2.8-0.2,2.8-2c0-1.5-1.6-1.8-3-1.8h-2.4L651.2,119L651.2,119z"/>
	</g>
	<g>
		<path class="st0" d="M666.7,26.7h-34.8V133h-39.5V26.7h-34.2V0h108.6L666.7,26.7L666.7,26.7z"/>
		<path class="st0" d="M110.2,95.3c0,10.4-2.8,19.5-10.4,27.2C92.1,130.2,83.2,133,73,133H0V0h73c10.3,0,19.3,2.8,26.9,10.5
			c7.6,7.7,10.4,16.8,10.4,27.3c0,10.3-3.4,20.2-10.2,27.7c6.8,7.5,10.2,16.1,10.2,25.7L110.2,95.3L110.2,95.3z M70.8,39.6
			c0-3.5-1.1-6.7-3.6-9.3c-2.5-2.6-5.7-3.6-9.1-3.6H39.5v26.7h18.6c3.6,0,6.8-1.2,9.2-3.9C69.7,46.7,70.8,43.3,70.8,39.6z
			 M70.8,92.8c0-3.4-1.1-6.6-3.6-9.2c-2.5-2.5-5.7-3.6-9.1-3.6H39.5v26.3h18.6c3.6,0,6.8-1.2,9.2-3.9C69.7,99.8,70.8,96.4,70.8,92.8
			z"/>
		<path class="st0" d="M303.2,0c-10.2,0-14,8.7-15.1,13.7c-1.5,6.5-13.9,59.3-14.1,60.4c-0.2-1.1-12.7-54-14.2-60.4
			c-1.1-5-5-13.7-15.1-13.7c-3.9,0-27.8,0-27.8,0l38.3,133h37.7L331,0C331,0,307.1,0,303.2,0z"/>
		<path class="st0" d="M212.5,26.8V0h-76.6C124.3,0,115,9.4,115,21V112c0,11.6,9.4,21,20.9,21h8.9c0.2,0,0.4,0.1,0.6,0.1h67.1v-26.8
			h-58.1V80.1h55.9V53.4h-55.9V26.8H212.5z"/>
		<path class="st0" d="M551.5,26.8V0h-76.6c-11.6,0-21,9.4-21,21V112c0,11.6,9.4,21,21,21h8.9c0.2,0,0.4,0.1,0.6,0.1h67.1v-26.8
			h-58.1V80.1h55.9V53.4h-55.9V26.8H551.5z"/>
		<path class="st0" d="M408.5,0v73c-5.9-11.9-29.7-60.4-31-63.2c-1.9-4-6.5-9.8-16.1-9.8h-25.5v133h38V62.7c0,0,28.1,57.5,29.6,60.6
			c1.9,4,5.9,9.7,16.4,9.7c5.4,0,26.6,0,26.6,0V0H408.5z"/>
	</g>
</g>
</svg>
